HIERARCHY
ROOT root
{
	OFFSET	0	13.1	24.9
	CHANNELS 6  Xposition Yposition Zposition Xrotation Yrotation Zrotation
	JOINT spine_1
	{
		OFFSET	0	9.99999	0
		CHANNELS 3  Xrotation Yrotation Zrotation
		JOINT spine_2
		{
			OFFSET	0	112	-10
			CHANNELS 3  Xrotation Yrotation Zrotation
			JOINT spine_3
			{
				OFFSET	0	206.5	19.3
				CHANNELS 3  Xrotation Yrotation Zrotation
				JOINT spine_4
				{
					OFFSET	0	110.4	14.6
					CHANNELS 3  Xrotation Yrotation Zrotation
					JOINT neck_1
					{
						OFFSET	0	71.8	-50.3
						CHANNELS 3  Xrotation Yrotation Zrotation
						JOINT neck_2
						{
							OFFSET	0	86.2	-25.8
							CHANNELS 3  Xrotation Yrotation Zrotation
							JOINT head_ee
							{
								OFFSET	0	179.8	-8.7
								CHANNELS 3  Xrotation Yrotation Zrotation
								End Site
								{
									OFFSET	1	0	0
								}
							}
						}
					}
					JOINT left_clavicle
					{
						OFFSET	-43.2	22.4	-70.8
						CHANNELS 3  Xrotation Yrotation Zrotation
						JOINT left_shoulder
						{
							OFFSET	-93.9	-5.79999	48.7
							CHANNELS 3  Xrotation Yrotation Zrotation
							JOINT left_elbow
							{
								OFFSET	-291.4	-30.8	15.2
								CHANNELS 3  Xrotation Yrotation Zrotation
								JOINT left_lowarm_twist
								{
									OFFSET	-110.7	-3.89999	13.6
									CHANNELS 3  Xrotation Yrotation Zrotation
									JOINT left_hand
									{
										OFFSET	-110.7	-3.89999	13.6
										CHANNELS 3  Xrotation Yrotation Zrotation
										JOINT left_ee
										{
											OFFSET	-80.8	-5.10001	12.1
											CHANNELS 3  Xrotation Yrotation Zrotation
											End Site
											{
												OFFSET	1	0	0
											}
										}
									}
								}
							}
						}
					}
					JOINT right_clavicle
					{
						OFFSET	43.2	22.4	-70.8
						CHANNELS 3  Xrotation Yrotation Zrotation
						JOINT right_shoulder
						{
							OFFSET	93.9	-5.79999	48.7
							CHANNELS 3  Xrotation Yrotation Zrotation
							JOINT right_elbow
							{
								OFFSET	291.4	-30.8	15.2
								CHANNELS 3  Xrotation Yrotation Zrotation
								JOINT right_lowarm_twist
								{
									OFFSET	110.7	-3.89999	13.6
									CHANNELS 3  Xrotation Yrotation Zrotation
									JOINT right_hand
									{
										OFFSET	110.7	-3.89999	13.6
										CHANNELS 3  Xrotation Yrotation Zrotation
										JOINT right_ee
										{
											OFFSET	80.8	-5.10001	12.1
											CHANNELS 3  Xrotation Yrotation Zrotation
											End Site
											{
												OFFSET	1	0	0
											}
										}
									}
								}
							}
						}
					}
				}
			}
		}
	}
	JOINT left_hip
	{
		OFFSET	-82.8	-127.5	0.300001
		CHANNELS 3  Xrotation Yrotation Zrotation
		JOINT left_knee
		{
			OFFSET	-28.2	-396.7	2.2
			CHANNELS 3  Xrotation Yrotation Zrotation
			JOINT left_ankle
			{
				OFFSET	-11.7	-411.3	35.4
				CHANNELS 3  Xrotation Yrotation Zrotation
				JOINT left_toes
				{
					OFFSET	0	-60	-88.6
					CHANNELS 3  Xrotation Yrotation Zrotation
					JOINT left_foot_ee
					{
						OFFSET	-22.5	-16.5	-42.2
						CHANNELS 3  Xrotation Yrotation Zrotation
						End Site
						{
							OFFSET	1	0	0
						}
					}
				}
			}
		}
	}
	JOINT right_hip
	{
		OFFSET	82.8	-127.5	0.300001
		CHANNELS 3  Xrotation Yrotation Zrotation
		JOINT right_knee
		{
			OFFSET	28.2	-396.7	2.2
			CHANNELS 3  Xrotation Yrotation Zrotation
			JOINT right_ankle
			{
				OFFSET	11.7	-411.3	35.4
				CHANNELS 3  Xrotation Yrotation Zrotation
				JOINT right_toes
				{
					OFFSET	0	-60	-88.6
					CHANNELS 3  Xrotation Yrotation Zrotation
					JOINT right_foot_ee
					{
						OFFSET	22.5	-16.5	-42.2
						CHANNELS 3  Xrotation Yrotation Zrotation
						End Site
						{
							OFFSET	1	0	0
						}
					}
				}
			}
		}
	}
}
MOTION
Frames: 13
Frame Time: 0.02
2105.38 647.816 -1002.64 -16.4928 51.4757 11.0922 4.18651 0.0819749 -0.304213 4.18656 0.101167 -0.29838 4.186 0.141448 -0.281528 4.1859 0.0952111 -0.300334 -10.5038 5.95308 0.84046 -10.5444 10.6682 2.35076 -0.0 0.0 -0.0 4.61003 24.5926 9.03645 -26.3884 -19.198 63.2252 0.778409 -21.0866 0.14488 48.8394 -0.886979 -5.98929 1.56158 -7.96338 7.181 -0.0 0.0 -0.0 11.6428 22.0578 -22.9556 -1.56354 15.9402 -62.817 0.539011 14.95 -0.0707233 21.3277 -0.25211 2.69706 2.39605 11.3754 -11.393 0.0 0.0 0.0 31.8832 12.1773 0.759982 -60.696 -2.27561 8.60168 35.8072 2.14761 -4.48365 4.13083 -0.0 -0.0 -0.0 0.0 -0.0 24.7844 17.4234 -4.59663 -15.2593 -0.321972 -2.31267 30.7006 6.47133 4.05861 -14.6431 0.0 0.0 0.0 0.0 0.0 
2085.7 642.711 -1014.42 -16.2441 52.1241 11.3801 4.35772 0.193064 -0.530998 4.35785 0.226462 -0.517637 4.35572 0.294434 -0.482227 4.35546 0.214581 -0.522674 -11.7003 5.9273 1.21701 -11.751 10.4401 2.81485 -0.0 0.0 -0.0 3.69587 24.7845 7.79442 -27.3888 -18.9227 62.7606 0.729401 -19.866 0.127735 48.942 -0.894113 -6.00032 1.5783 -8.45002 7.08612 -0.0 0.0 -0.0 11.7112 22.8769 -23.0397 0.317366 16.5855 -62.3911 0.540159 14.9804 -0.0710197 21.5584 -0.249316 2.7264 2.6256 12.4021 -12.5067 0.0 0.0 0.0 36.5417 12.8393 0.294364 -59.2597 -2.12057 8.44337 35.0761 2.16101 -4.41353 3.7392 -0.0 -0.0 -0.0 0.0 -0.0 22.6872 17.3769 -4.48367 -15.0069 -0.321687 -2.27395 31.2789 6.46407 4.11969 -15.0981 0.0 0.0 0.0 0.0 0.0 
2073.2 648.88 -1021.15 -17.6188 52.6159 12.5363 4.76327 0.297383 -0.624731 4.76342 0.336533 -0.604542 4.75976 0.411348 -0.556345 4.75947 0.318323 -0.614326 -14.0501 5.78214 1.58862 -14.1195 10.0645 3.33643 -0.0 0.0 -0.0 3.25863 24.2409 7.19966 -27.6157 -18.2353 63.2861 0.701352 -19.1588 0.118367 48.9542 -0.894963 -6.00163 1.56187 -9.21013 6.64724 -0.0 0.0 -0.0 11.8422 23.939 -23.2384 1.5827 17.0632 -61.2324 0.540853 14.9988 -0.0711992 21.7108 -0.247406 2.74577 2.78796 13.1242 -13.2931 0.0 0.0 0.0 41.38 11.1423 -0.716529 -56.7432 -1.85877 8.15696 33.5036 2.33635 -4.25834 3.29441 -0.0 -0.0 -0.0 0.0 -0.0 20.0322 17.1681 -3.61344 -13.3469 -0.315565 -2.01934 31.67 6.4281 4.1601 -15.4209 0.0 0.0 0.0 0.0 0.0 
2062.95 651.814 -1028.25 -17.6796 53.9485 12.2407 4.88533 0.464575 -0.489015 4.88533 0.494751 -0.458462 4.88139 0.548674 -0.392329 4.88149 0.479828 -0.474058 -16.136 5.6937 2.04675 -16.2172 9.74217 3.92532 -0.0 0.0 -0.0 2.61458 24.0268 6.31861 -28.6282 -17.6533 64.0007 0.675708 -18.5068 0.110088 48.9471 -0.894469 -6.00087 1.56179 -9.71778 6.42732 -0.0 0.0 -0.0 12.0006 25.1563 -23.4753 2.55097 17.3163 -59.9989 0.541519 15.0164 -0.0713717 21.8612 -0.245471 2.76488 2.90197 13.7543 -13.7858 0.0 0.0 0.0 45.0611 9.35552 -0.562564 -54.6344 -1.6493 7.90839 32.4059 2.39037 -4.14736 2.98096 -0.0 -0.0 -0.0 0.0 -0.0 17.7773 16.8007 -3.45998 -12.1785 -0.306833 -1.84028 31.7064 6.55272 4.16589 -15.7302 0.0 0.0 0.0 0.0 0.0 
2050.98 650.318 -1036.48 -18.6859 55.6421 13.6304 4.96879 0.138589 -0.339186 4.96884 0.159891 -0.32968 4.96788 0.199764 -0.307161 4.96778 0.148747 -0.334855 -17.8492 6.14416 2.26229 -17.9661 10.5844 4.45818 -0.0 0.0 -0.0 2.19625 23.0795 5.70732 -29.2061 -16.2387 64.8582 0.633622 -17.426 0.0971059 50.0057 -0.96922 -6.11394 1.59535 -10.063 6.50555 -0.0 0.0 -0.0 12.2785 25.96 -24.0223 4.21345 17.4275 -59.0642 0.603885 16.6545 -0.0883917 21.4196 -0.251011 2.70875 3.01073 14.8097 -14.0365 0.0 0.0 0.0 45.1353 3.79543 1.77599 -53.2934 -1.52093 7.74643 31.6128 2.4297 -4.06568 4.10074 -0.0 -0.0 -0.0 0.0 -0.0 17.755 15.0138 -3.28178 -11.8008 -0.30323 -1.78245 29.9804 4.1316 3.94887 -16.114 0.0 0.0 0.0 0.0 0.0 
2035.63 649.884 -1044.69 -19.0206 55.6898 14.0545 5.02634 0.0282509 -0.236663 5.02637 0.043253 -0.234385 5.02617 0.071918 -0.227234 5.0261 0.0351283 -0.23574 -18.0644 6.19952 0.658789 -18.2259 11.5694 3.01284 -0.0 0.0 -0.0 2.74997 21.7705 6.43578 -31.0066 -13.9151 65.0585 0.526116 -14.6078 0.067434 51.9978 -1.11552 -6.32292 1.78391 -9.21275 8.15724 -0.0 0.0 -0.0 12.5243 26.5866 -24.5126 5.28003 17.7393 -58.0773 0.664543 18.2214 -0.106571 20.0955 -0.26503 2.5402 3.39691 17.6845 -15.2889 0.0 0.0 0.0 46.0941 -2.36192 3.27346 -51.6837 -1.37195 7.54818 29.2272 3.74049 -3.80843 5.35179 -0.0 -0.0 -0.0 0.0 -0.0 16.9073 13.1777 -3.12608 -11.8299 -0.303521 -1.7869 30.4862 2.64151 3.98567 -16.8424 0.0 0.0 0.0 0.0 0.0 
2017.46 645.451 -1050.42 -19.2283 55.3903 14.5827 4.92824 0.0414891 -0.156217 4.92825 0.0513455 -0.15326 4.9281 0.070161 -0.14561 4.92807 0.0462841 -0.154864 -16.9163 6.76603 -0.851521 -17.1138 13.4678 1.69393 -0.0 0.0 -0.0 3.14407 21.3019 6.98905 -33.06 -12.3534 65.2127 0.442111 -12.3534 0.0478471 53.874 -1.2599 -6.51503 1.94701 -7.94158 9.82101 -0.0 0.0 -0.0 12.9767 26.6686 -25.543 4.79961 17.5659 -57.6661 0.717113 19.5569 -0.123591 18.5117 -0.276676 2.33825 3.79181 20.8078 -16.3796 0.0 0.0 0.0 48.3041 -7.63746 3.93842 -47.0555 -0.975506 6.95621 22.5587 4.4537 -3.04553 5.08676 -0.0 -0.0 -0.0 0.0 -0.0 15.0678 10.046 -2.75345 -11.8978 -0.304191 -1.79729 32.8288 1.49764 4.217 -17.1895 0.0 0.0 0.0 0.0 0.0 
1996.81 642.571 -1060.87 -20.6027 55.1626 16.0654 5.14642 0.0692128 -0.109185 5.14642 0.0760202 -0.104559 5.14628 0.0881738 -0.094536 5.14627 0.072137 -0.107275 -16.1028 7.14278 -1.90013 -16.314 14.783 0.749333 -0.0 0.0 -0.0 2.94028 20.844 6.68211 -34.8567 -11.1159 64.7675 0.375112 -10.5268 0.0345567 55.1885 -1.36478 -6.64678 2.05426 -6.973 10.9728 -0.0 0.0 -0.0 13.2979 26.8191 -26.2666 5.53815 17.9841 -57.0312 0.791447 21.408 -0.149605 17.4061 -0.281495 2.19712 4.09832 23.1534 -17.1854 0.0 0.0 0.0 49.5184 -11.1565 4.76993 -43.7241 -0.720532 6.51159 17.7409 4.75661 -2.44927 4.87457 -0.0 -0.0 -0.0 0.0 -0.0 13.5815 7.67806 -3.0626 -11.9433 -0.304634 -1.80426 34.679 0.901266 4.39531 -17.371 0.0 0.0 0.0 0.0 0.0 
1988.53 637.859 -1083.64 -20.9559 56.1068 17.4404 5.41145 0.0479547 -0.0136414 5.41145 0.0487256 -0.0105622 5.41144 0.0496269 -0.00478686 5.41145 0.0482481 -0.0125644 -16.9005 8.13552 -1.87715 -17.2007 16.6696 1.25802 -0.0 0.0 -0.0 2.74022 19.7068 6.3511 -36.0026 -10.1978 63.5105 0.328878 -9.25332 0.026615 56.5565 -1.47713 -6.78134 1.82947 -4.4841 10.4823 -0.0 0.0 -0.0 13.4173 26.3148 -26.6058 4.92718 17.1227 -58.0188 0.885658 23.6882 -0.185739 16.5823 -0.283315 2.09191 4.40053 27.831 -16.5033 0.0 0.0 0.0 46.1125 -19.6103 3.24274 -28.9096 0.0842842 4.38894 2.89513 10.5688 -0.42092 3.93898 -0.0 -0.0 -0.0 0.0 -0.0 13.044 2.83195 -5.06763 -11.9694 -0.304885 -1.80826 36.0069 3.49301 4.5501 -18.1115 0.0 0.0 0.0 0.0 0.0 
1972.34 638.554 -1104.23 -23.0773 56.6714 20.0889 5.97988 0.0504006 0.1663 5.97989 0.0397164 0.16917 5.97999 0.0213564 0.172452 5.97996 0.0483239 0.166915 -17.5041 8.82466 -1.84458 -17.8804 17.9711 1.6558 -0.0 0.0 -0.0 2.76787 18.674 6.35445 -36.4212 -9.63359 62.6442 0.29852 -8.41201 0.0219535 57.5272 -1.55879 -6.87519 1.66626 -2.71642 10.0987 -0.0 0.0 -0.0 13.4812 25.9454 -26.799 4.50832 16.4136 -58.2333 0.954388 25.3032 -0.214239 16.033 -0.283688 2.02175 4.58208 30.6596 -15.9648 0.0 0.0 0.0 42.9655 -25.623 1.33213 -18.563 0.309972 2.81934 -7.56029 14.3534 1.12869 3.33591 -0.0 -0.0 -0.0 0.0 -0.0 12.5097 -0.674048 -6.21655 -11.994 -0.305121 -1.81202 37.0232 5.25299 4.6695 -18.6289 0.0 0.0 0.0 0.0 0.0 
1952.49 632.54 -1117.33 -24.1594 56.9987 22.0822 6.30279 0.0197437 -0.105593 6.30279 0.0264228 -0.104123 6.30274 0.0368626 -0.1009 6.30272 0.0204647 -0.105456 -17.993 9.2451 -1.89269 -18.4278 18.8014 1.86577 -0.0 0.0 -0.0 2.75599 18.2016 6.31838 -36.8314 -9.18843 62.1468 0.277279 -7.82115 0.0189545 58.2148 -1.6176 -6.94082 1.54761 -1.39127 9.83227 -0.0 0.0 -0.0 13.5512 25.6713 -26.9945 3.13278 15.6712 -58.4191 0.99657 26.2737 -0.23259 15.6274 -0.283531 1.96995 4.53065 31.1618 -15.3244 0.0 0.0 0.0 41.167 -29.7753 0.287312 -10.2686 0.284705 1.54808 -14.9656 17.0458 2.26708 2.83627 -0.0 -0.0 -0.0 0.0 -0.0 11.8075 -3.11564 -7.12563 -12.1392 -0.306476 -1.83426 37.7295 6.50542 4.75463 -19.0209 0.0 0.0 0.0 0.0 0.0 
1930.83 631.267 -1120.62 -25.3831 57.5407 23.7056 6.63609 -0.116385 -0.28722 6.63613 -0.0978731 -0.294044 6.63657 -0.0692613 -0.302066 6.63647 -0.116097 -0.287336 -17.9274 8.00941 -3.33848 -18.265 17.2112 0.00272295 -0.0 0.0 -0.0 3.3316 18.5688 7.20669 -38.1565 -7.85607 64.1997 0.261704 -7.38683 0.0168935 58.5855 -1.64963 -6.97592 1.31999 -0.655552 8.58656 -0.0 0.0 -0.0 13.1009 24.5831 -26.0702 1.79346 15.0502 -58.446 1.08297 28.2116 -0.272148 15.2226 -0.28301 1.91825 4.29818 28.7807 -15.2689 0.0 0.0 0.0 39.8691 -33.336 0.0389485 -3.32039 0.122399 0.494804 -19.1358 19.1707 2.92442 1.86218 -0.0 -0.0 -0.0 0.0 -0.0 11.1683 -4.64242 -6.65743 -14.4245 -0.320379 -2.1846 39.6977 7.61786 4.95015 -18.7906 0.0 0.0 0.0 0.0 0.0 
1912.63 629.708 -1121.82 -25.8514 56.9202 24.6137 6.78676 -0.181097 -0.374639 6.78682 -0.156891 -0.385403 6.78778 -0.120311 -0.398341 6.7876 -0.181712 -0.374341 -17.9449 6.94143 -4.24826 -18.1984 15.6526 -1.27558 -0.0 0.0 -0.0 3.75456 18.1092 7.84557 -37.1101 -6.0612 65.1281 0.23939 -6.7631 0.0141451 59.7473 -1.75149 -7.08457 0.9949 0.622244 6.91263 -0.0 0.0 -0.0 12.6892 23.202 -25.2565 0.392655 14.444 -58.4048 1.13182 29.2772 -0.295641 15.0176 -0.282606 1.89207 4.04024 27.2794 -14.4621 0.0 0.0 0.0 39.1236 -35.8651 -1.51031 0.259362 -0.0107668 -0.0383448 -20.7162 21.6616 3.19654 1.19779 -0.0 -0.0 -0.0 0.0 -0.0 10.8184 -5.39605 -6.25751 -15.9002 -0.321928 -2.411 39.4046 9.32686 4.9597 -18.1276 0.0 0.0 0.0 0.0 0.0 
